<?xml version="1.0" encoding="UTF-8" standalone="no"?>
<!DOCTYPE svg PUBLIC "-//W3C//DTD SVG 1.1//EN"
 "http://www.w3.org/Graphics/SVG/1.1/DTD/svg11.dtd">
<!-- Generated by graphviz version 2.38.0 (20140413.2041)
 -->
<!-- Title: G Pages: 1 -->
<svg width="620pt" height="192pt"
 viewBox="0.00 0.00 619.70 192.00" xmlns="http://www.w3.org/2000/svg" xmlns:xlink="http://www.w3.org/1999/xlink">
<g id="graph0" class="graph" transform="scale(1 1) rotate(0) translate(4 188)">
<title>G</title>
<polygon fill="white" stroke="none" points="-4,4 -4,-188 615.703,-188 615.703,4 -4,4"/>
<!-- A0 -->
<g id="node1" class="node"><title>A0</title>
<polygon fill="none" stroke="black" points="529.801,-94.5 529.801,-146.5 611.703,-146.5 611.703,-94.5 529.801,-94.5"/>
<text text-anchor="middle" x="570.752" y="-133.5" font-family="Helvetica,sans-Serif" font-size="10.00">Academy</text>
<polyline fill="none" stroke="black" points="529.801,-126.5 611.703,-126.5 "/>
<text text-anchor="middle" x="570.752" y="-113.5" font-family="Helvetica,sans-Serif" font-size="10.00">id_academy</text>
<text text-anchor="middle" x="570.752" y="-101.5" font-family="Helvetica,sans-Serif" font-size="10.00">title</text>
</g>
<!-- A1 -->
<g id="node2" class="node"><title>A1</title>
<polygon fill="none" stroke="black" points="424.026,-94.5 424.026,-146.5 479.801,-146.5 479.801,-94.5 424.026,-94.5"/>
<text text-anchor="middle" x="451.913" y="-133.5" font-family="Helvetica,sans-Serif" font-size="10.00">RD</text>
<polyline fill="none" stroke="black" points="424.026,-126.5 479.801,-126.5 "/>
<text text-anchor="middle" x="451.913" y="-113.5" font-family="Helvetica,sans-Serif" font-size="10.00">id_RD</text>
<text text-anchor="middle" x="451.913" y="-101.5" font-family="Helvetica,sans-Serif" font-size="10.00">title</text>
</g>
<!-- A0&#45;&gt;A1 -->
<g id="edge1" class="edge"><title>A0&#45;&gt;A1</title>
<path fill="none" stroke="black" d="M529.543,-120.5C513.172,-120.5 494.682,-120.5 479.966,-120.5"/>
<text text-anchor="middle" x="498.092" y="-125.952" font-family="Helvetica,sans-Serif" font-size="10.00">1..*</text>
<text text-anchor="middle" x="511.417" y="-109.048" font-family="Helvetica,sans-Serif" font-size="10.00">1..1</text>
</g>
<!-- A2 -->
<g id="node3" class="node"><title>A2</title>
<polygon fill="none" stroke="black" points="303.793,-94.5 303.793,-146.5 374.026,-146.5 374.026,-94.5 303.793,-94.5"/>
<text text-anchor="middle" x="338.909" y="-133.5" font-family="Helvetica,sans-Serif" font-size="10.00">School</text>
<polyline fill="none" stroke="black" points="303.793,-126.5 374.026,-126.5 "/>
<text text-anchor="middle" x="338.909" y="-113.5" font-family="Helvetica,sans-Serif" font-size="10.00">id_school</text>
<text text-anchor="middle" x="338.909" y="-101.5" font-family="Helvetica,sans-Serif" font-size="10.00">title</text>
</g>
<!-- A1&#45;&gt;A2 -->
<g id="edge2" class="edge"><title>A1&#45;&gt;A2</title>
<path fill="none" stroke="black" d="M423.759,-120.5C408.868,-120.5 390.256,-120.5 374.352,-120.5"/>
<text text-anchor="middle" x="392.478" y="-125.952" font-family="Helvetica,sans-Serif" font-size="10.00">1..*</text>
<text text-anchor="middle" x="405.633" y="-109.048" font-family="Helvetica,sans-Serif" font-size="10.00">1..1</text>
</g>
<!-- A3 -->
<g id="node4" class="node"><title>A3</title>
<polygon fill="none" stroke="black" points="166.902,-58.5 166.902,-122.5 253.793,-122.5 253.793,-58.5 166.902,-58.5"/>
<text text-anchor="middle" x="210.347" y="-109.5" font-family="Helvetica,sans-Serif" font-size="10.00">Classroom</text>
<polyline fill="none" stroke="black" points="166.902,-102.5 253.793,-102.5 "/>
<text text-anchor="middle" x="210.347" y="-89.5" font-family="Helvetica,sans-Serif" font-size="10.00">id_classroom</text>
<text text-anchor="middle" x="210.347" y="-77.5" font-family="Helvetica,sans-Serif" font-size="10.00">title</text>
<text text-anchor="middle" x="210.347" y="-65.5" font-family="Helvetica,sans-Serif" font-size="10.00">level</text>
</g>
<!-- A2&#45;&gt;A3 -->
<g id="edge3" class="edge"><title>A2&#45;&gt;A3</title>
<path fill="none" stroke="black" d="M303.66,-112.382C288.433,-108.772 270.343,-104.484 254.229,-100.664"/>
<text text-anchor="middle" x="269.917" y="-110.07" font-family="Helvetica,sans-Serif" font-size="10.00">1..*</text>
<text text-anchor="middle" x="287.972" y="-96.9764" font-family="Helvetica,sans-Serif" font-size="10.00">1..1</text>
</g>
<!-- A4 -->
<g id="node5" class="node"><title>A4</title>
<polygon fill="none" stroke="black" points="21.1105,-119.5 21.1105,-183.5 95.7915,-183.5 95.7915,-119.5 21.1105,-119.5"/>
<text text-anchor="middle" x="58.451" y="-170.5" font-family="Helvetica,sans-Serif" font-size="10.00">Teacher</text>
<polyline fill="none" stroke="black" points="21.1105,-163.5 95.7915,-163.5 "/>
<text text-anchor="middle" x="58.451" y="-150.5" font-family="Helvetica,sans-Serif" font-size="10.00">id_teacher</text>
<text text-anchor="middle" x="58.451" y="-138.5" font-family="Helvetica,sans-Serif" font-size="10.00">subject</text>
<text text-anchor="middle" x="58.451" y="-126.5" font-family="Helvetica,sans-Serif" font-size="10.00">full_name</text>
</g>
<!-- A3&#45;&gt;A4 -->
<g id="edge4" class="edge"><title>A3&#45;&gt;A4</title>
<path fill="none" stroke="black" d="M166.794,-107.817C144.463,-116.905 117.381,-127.926 96.006,-136.624"/>
<text text-anchor="middle" x="115.981" y="-134.621" font-family="Helvetica,sans-Serif" font-size="10.00">1..*</text>
<text text-anchor="middle" x="146.819" y="-103.82" font-family="Helvetica,sans-Serif" font-size="10.00">1..*</text>
</g>
<!-- A5 -->
<g id="node6" class="node"><title>A5</title>
<polygon fill="none" stroke="black" points="0,-0.5 0,-100.5 116.902,-100.5 116.902,-0.5 0,-0.5"/>
<text text-anchor="middle" x="58.451" y="-87.5" font-family="Helvetica,sans-Serif" font-size="10.00">Student</text>
<polyline fill="none" stroke="black" points="0,-80.5 116.902,-80.5 "/>
<text text-anchor="middle" x="58.451" y="-67.5" font-family="Helvetica,sans-Serif" font-size="10.00">id_student</text>
<text text-anchor="middle" x="58.451" y="-55.5" font-family="Helvetica,sans-Serif" font-size="10.00">full_name</text>
<text text-anchor="middle" x="58.451" y="-43.5" font-family="Helvetica,sans-Serif" font-size="10.00">birth_date</text>
<text text-anchor="middle" x="58.451" y="-31.5" font-family="Helvetica,sans-Serif" font-size="10.00">massar_number</text>
<text text-anchor="middle" x="58.451" y="-19.5" font-family="Helvetica,sans-Serif" font-size="10.00">registration_number</text>
<text text-anchor="middle" x="58.451" y="-7.5" font-family="Helvetica,sans-Serif" font-size="10.00">queuing_number</text>
</g>
<!-- A3&#45;&gt;A5 -->
<g id="edge5" class="edge"><title>A3&#45;&gt;A5</title>
<path fill="none" stroke="black" d="M166.794,-79.1446C151.301,-75.0102 133.521,-70.2655 116.946,-65.8426"/>
<text text-anchor="middle" x="132.28" y="-75.6826" font-family="Helvetica,sans-Serif" font-size="10.00">1.*</text>
<text text-anchor="middle" x="151.46" y="-63.3046" font-family="Helvetica,sans-Serif" font-size="10.00">1..1</text>
</g>
<!-- A4&#45;&gt;A2 -->
<g id="edge6" class="edge"><title>A4&#45;&gt;A2</title>
<path fill="none" stroke="black" d="M96.0188,-148.039C135.107,-144.269 198.88,-137.915 253.793,-131.5 270.177,-129.586 288.325,-127.241 303.558,-125.209"/>
<text text-anchor="middle" x="284.477" y="-116.218" font-family="Helvetica,sans-Serif" font-size="10.00">1..1</text>
<text text-anchor="middle" x="114.876" y="-151.702" font-family="Helvetica,sans-Serif" font-size="10.00">1..*</text>
</g>
</g>
</svg>
