<?xml version="1.0" encoding="UTF-8" standalone="no"?>
<!DOCTYPE svg PUBLIC "-//W3C//DTD SVG 1.1//EN"
 "http://www.w3.org/Graphics/SVG/1.1/DTD/svg11.dtd">
<!-- Generated by graphviz version 2.40.1 (20161225.0304)
 -->
<!-- Title: G Pages: 1 -->
<svg width="397pt" height="199pt"
 viewBox="0.00 0.00 397.04 198.50" xmlns="http://www.w3.org/2000/svg" xmlns:xlink="http://www.w3.org/1999/xlink">
<g id="graph0" class="graph" transform="scale(1 1) rotate(0) translate(4 194.5)">
<title>G</title>
<polygon fill="#ffffff" stroke="transparent" points="-4,4 -4,-194.5 393.041,-194.5 393.041,4 -4,4"/>
<!-- A0 -->
<g id="node1" class="node">
<title>A0</title>
<polygon fill="none" stroke="#000000" points="12.792,-12.5 12.792,-76.5 88.565,-76.5 88.565,-12.5 12.792,-12.5"/>
<text text-anchor="middle" x="50.6785" y="-63.5" font-family="Helvetica,sans-Serif" font-size="10.00" fill="#000000">Classroom</text>
<polyline fill="none" stroke="#000000" points="12.792,-56.5 88.565,-56.5 "/>
<text text-anchor="middle" x="50.6785" y="-43.5" font-family="Helvetica,sans-Serif" font-size="10.00" fill="#000000">id</text>
<text text-anchor="middle" x="50.6785" y="-31.5" font-family="Helvetica,sans-Serif" font-size="10.00" fill="#000000">name</text>
<text text-anchor="middle" x="50.6785" y="-19.5" font-family="Helvetica,sans-Serif" font-size="10.00" fill="#000000">level</text>
</g>
<!-- A1 -->
<g id="node2" class="node">
<title>A1</title>
<polygon fill="none" stroke="#000000" points="151.357,-.5 151.357,-88.5 268.259,-88.5 268.259,-.5 151.357,-.5"/>
<text text-anchor="middle" x="209.808" y="-75.5" font-family="Helvetica,sans-Serif" font-size="10.00" fill="#000000">Student</text>
<polyline fill="none" stroke="#000000" points="151.357,-68.5 268.259,-68.5 "/>
<text text-anchor="middle" x="209.808" y="-55.5" font-family="Helvetica,sans-Serif" font-size="10.00" fill="#000000">id</text>
<text text-anchor="middle" x="209.808" y="-43.5" font-family="Helvetica,sans-Serif" font-size="10.00" fill="#000000">registration_number</text>
<text text-anchor="middle" x="209.808" y="-31.5" font-family="Helvetica,sans-Serif" font-size="10.00" fill="#000000">massar_number</text>
<text text-anchor="middle" x="209.808" y="-19.5" font-family="Helvetica,sans-Serif" font-size="10.00" fill="#000000">full_name</text>
<text text-anchor="middle" x="209.808" y="-7.5" font-family="Helvetica,sans-Serif" font-size="10.00" fill="#000000">date_birth</text>
</g>
<!-- A0&#45;&gt;A1 -->
<g id="edge1" class="edge">
<title>A0&#45;&gt;A1</title>
<path fill="none" stroke="#000000" d="M88.794,-44.5C107.4593,-44.5 130.347,-44.5 151.1747,-44.5"/>
<text text-anchor="middle" x="133.0485" y="-49.9524" font-family="Helvetica,sans-Serif" font-size="10.00" fill="#000000">1..*</text>
<text text-anchor="middle" x="106.9201" y="-33.0476" font-family="Helvetica,sans-Serif" font-size="10.00" fill="#000000">1..1</text>
</g>
<!-- A2 -->
<g id="node3" class="node">
<title>A2</title>
<polygon fill="none" stroke="#000000" points="318.259,-12.5 318.259,-76.5 389.041,-76.5 389.041,-12.5 318.259,-12.5"/>
<text text-anchor="middle" x="353.65" y="-63.5" font-family="Helvetica,sans-Serif" font-size="10.00" fill="#000000">Session</text>
<polyline fill="none" stroke="#000000" points="318.259,-56.5 389.041,-56.5 "/>
<text text-anchor="middle" x="353.65" y="-43.5" font-family="Helvetica,sans-Serif" font-size="10.00" fill="#000000">id</text>
<text text-anchor="middle" x="353.65" y="-31.5" font-family="Helvetica,sans-Serif" font-size="10.00" fill="#000000">title</text>
<text text-anchor="middle" x="353.65" y="-19.5" font-family="Helvetica,sans-Serif" font-size="10.00" fill="#000000">unix_time</text>
</g>
<!-- A1&#45;&gt;A2 -->
<g id="edge2" class="edge">
<title>A1&#45;&gt;A2</title>
<path fill="none" stroke="#000000" d="M268.314,-44.5C285.1146,-44.5 302.9276,-44.5 317.9087,-44.5"/>
<text text-anchor="middle" x="299.7826" y="-49.9524" font-family="Helvetica,sans-Serif" font-size="10.00" fill="#000000">*</text>
<text text-anchor="middle" x="286.4402" y="-33.0476" font-family="Helvetica,sans-Serif" font-size="10.00" fill="#000000">*</text>
</g>
<!-- A3 -->
<g id="node4" class="node">
<title>A3</title>
<polygon fill="none" stroke="#000000" points="17.226,-95.5 17.226,-135.5 84.131,-135.5 84.131,-95.5 17.226,-95.5"/>
<text text-anchor="middle" x="50.6785" y="-122.5" font-family="Helvetica,sans-Serif" font-size="10.00" fill="#000000">Absence</text>
<polyline fill="none" stroke="#000000" points="17.226,-115.5 84.131,-115.5 "/>
<text text-anchor="middle" x="50.6785" y="-102.5" font-family="Helvetica,sans-Serif" font-size="10.00" fill="#000000">id</text>
</g>
<!-- A4 -->
<g id="node5" class="node">
<title>A4</title>
<polygon fill="none" stroke="#000000" points="95.5361,-190.5 -.1791,-190.5 -.1791,-154.5 101.5361,-154.5 101.5361,-184.5 95.5361,-190.5"/>
<polyline fill="none" stroke="#000000" points="95.5361,-190.5 95.5361,-184.5 "/>
<polyline fill="none" stroke="#000000" points="101.5361,-184.5 95.5361,-184.5 "/>
<text text-anchor="middle" x="50.6785" y="-175.5" font-family="Helvetica,sans-Serif" font-size="10.00" fill="#000000">associatio &#160;class</text>
<text text-anchor="middle" x="50.6785" y="-163.5" font-family="Helvetica,sans-Serif" font-size="10.00" fill="#000000">Student&#45;Session</text>
</g>
</g>
</svg>
