<?xml version="1.0" encoding="UTF-8" standalone="no"?>
<!DOCTYPE svg PUBLIC "-//W3C//DTD SVG 1.1//EN"
 "http://www.w3.org/Graphics/SVG/1.1/DTD/svg11.dtd">
<!-- Generated by graphviz version 2.38.0 (20140413.2041)
 -->
<!-- Title: G Pages: 1 -->
<svg width="632pt" height="189pt"
 viewBox="0.00 0.00 632.48 189.00" xmlns="http://www.w3.org/2000/svg" xmlns:xlink="http://www.w3.org/1999/xlink">
<g id="graph0" class="graph" transform="scale(1 1) rotate(0) translate(4 185)">
<title>G</title>
<polygon fill="white" stroke="none" points="-4,4 -4,-185 628.479,-185 628.479,4 -4,4"/>
<!-- A0 -->
<g id="node1" class="node"><title>A0</title>
<polygon fill="none" stroke="black" points="144.117,-116.5 144.117,-180.5 219.89,-180.5 219.89,-116.5 144.117,-116.5"/>
<text text-anchor="middle" x="182.003" y="-167.5" font-family="Helvetica,sans-Serif" font-size="10.00">Classroom</text>
<polyline fill="none" stroke="black" points="144.117,-160.5 219.89,-160.5 "/>
<text text-anchor="middle" x="182.003" y="-147.5" font-family="Helvetica,sans-Serif" font-size="10.00">id</text>
<text text-anchor="middle" x="182.003" y="-135.5" font-family="Helvetica,sans-Serif" font-size="10.00">name</text>
<text text-anchor="middle" x="182.003" y="-123.5" font-family="Helvetica,sans-Serif" font-size="10.00">level</text>
</g>
<!-- A1 -->
<g id="node2" class="node"><title>A1</title>
<polygon fill="none" stroke="black" points="269.89,-43.5 269.89,-131.5 386.792,-131.5 386.792,-43.5 269.89,-43.5"/>
<text text-anchor="middle" x="328.341" y="-118.5" font-family="Helvetica,sans-Serif" font-size="10.00">Student</text>
<polyline fill="none" stroke="black" points="269.89,-111.5 386.792,-111.5 "/>
<text text-anchor="middle" x="328.341" y="-98.5" font-family="Helvetica,sans-Serif" font-size="10.00">id</text>
<text text-anchor="middle" x="328.341" y="-86.5" font-family="Helvetica,sans-Serif" font-size="10.00">registration_number</text>
<text text-anchor="middle" x="328.341" y="-74.5" font-family="Helvetica,sans-Serif" font-size="10.00">massar_number</text>
<text text-anchor="middle" x="328.341" y="-62.5" font-family="Helvetica,sans-Serif" font-size="10.00">full_name</text>
<text text-anchor="middle" x="328.341" y="-50.5" font-family="Helvetica,sans-Serif" font-size="10.00">date_birth</text>
</g>
<!-- A0&#45;&gt;A1 -->
<g id="edge1" class="edge"><title>A0&#45;&gt;A1</title>
<path fill="none" stroke="black" d="M220.174,-132.791C235.293,-126.402 253.115,-118.87 269.84,-111.801"/>
<text text-anchor="middle" x="256.434" y="-123.643" font-family="Helvetica,sans-Serif" font-size="10.00">1..*</text>
<text text-anchor="middle" x="233.58" y="-114.949" font-family="Helvetica,sans-Serif" font-size="10.00">1..1</text>
</g>
<!-- A1JA2 -->
<!-- A1&#45;&gt;A1JA2 -->
<g id="edge2" class="edge"><title>A1&#45;&gt;A1JA2</title>
<path fill="none" stroke="black" d="M387.053,-87.5C424.387,-87.5 466.521,-87.5 469.118,-87.5"/>
<text text-anchor="middle" x="405.179" y="-76.0476" font-family="Helvetica,sans-Serif" font-size="10.00">0..*</text>
</g>
<!-- A2 -->
<g id="node3" class="node"><title>A2</title>
<polygon fill="none" stroke="black" points="553.697,-55.5 553.697,-119.5 624.479,-119.5 624.479,-55.5 553.697,-55.5"/>
<text text-anchor="middle" x="589.088" y="-106.5" font-family="Helvetica,sans-Serif" font-size="10.00">Session</text>
<polyline fill="none" stroke="black" points="553.697,-99.5 624.479,-99.5 "/>
<text text-anchor="middle" x="589.088" y="-86.5" font-family="Helvetica,sans-Serif" font-size="10.00">id</text>
<text text-anchor="middle" x="589.088" y="-74.5" font-family="Helvetica,sans-Serif" font-size="10.00">title</text>
<text text-anchor="middle" x="589.088" y="-62.5" font-family="Helvetica,sans-Serif" font-size="10.00">unix_time</text>
</g>
<!-- A3 -->
<g id="node4" class="node"><title>A3</title>
<polygon fill="none" stroke="black" points="436.792,-106.5 436.792,-146.5 503.697,-146.5 503.697,-106.5 436.792,-106.5"/>
<text text-anchor="middle" x="470.244" y="-133.5" font-family="Helvetica,sans-Serif" font-size="10.00">Absence</text>
<polyline fill="none" stroke="black" points="436.792,-126.5 503.697,-126.5 "/>
<text text-anchor="middle" x="470.244" y="-113.5" font-family="Helvetica,sans-Serif" font-size="10.00">id</text>
</g>
<!-- A3&#45;&gt;A1JA2 -->
<g id="edge4" class="edge"><title>A3&#45;&gt;A1JA2</title>
<path fill="none" stroke="black" stroke-dasharray="5,2" d="M470.244,-106.405C470.244,-103.642 470.244,-100.878 470.244,-98.1147"/>
<polygon fill="black" stroke="black" points="470.244,-88.1094 474.745,-98.1093 470.245,-93.1094 470.245,-98.1094 470.245,-98.1094 470.245,-98.1094 470.245,-93.1094 465.745,-98.1094 470.244,-88.1094 470.244,-88.1094"/>
</g>
<!-- A1JA2&#45;&gt;A2 -->
<g id="edge3" class="edge"><title>A1JA2&#45;&gt;A2</title>
<path fill="none" stroke="black" d="M471.329,-87.5C473.575,-87.5 520.015,-87.5 553.638,-87.5"/>
<text text-anchor="middle" x="535.512" y="-92.9524" font-family="Helvetica,sans-Serif" font-size="10.00">0..*</text>
</g>
<!-- A4 -->
<g id="node6" class="node"><title>A4</title>
<polygon fill="none" stroke="black" points="-1.42109e-14,-0.5 -1.42109e-14,-52.5 94.117,-52.5 94.117,-0.5 -1.42109e-14,-0.5"/>
<text text-anchor="middle" x="47.0585" y="-39.5" font-family="Helvetica,sans-Serif" font-size="10.00">AdditionalMark</text>
<polyline fill="none" stroke="black" points="-1.42109e-14,-32.5 94.117,-32.5 "/>
<text text-anchor="middle" x="47.0585" y="-19.5" font-family="Helvetica,sans-Serif" font-size="10.00">id</text>
<text text-anchor="middle" x="47.0585" y="-7.5" font-family="Helvetica,sans-Serif" font-size="10.00">value</text>
</g>
<!-- A4JA1 -->
<!-- A4&#45;&gt;A4JA1 -->
<g id="edge5" class="edge"><title>A4&#45;&gt;A4JA1</title>
<path fill="none" stroke="black" d="M94.1831,-26.5C131.381,-26.5 177.987,-26.5 180.863,-26.5"/>
<text text-anchor="middle" x="112.309" y="-15.0476" font-family="Helvetica,sans-Serif" font-size="10.00">0..*</text>
</g>
<!-- A5 -->
<g id="node7" class="node"><title>A5</title>
<polygon fill="none" stroke="black" points="153.83,-45.5 153.83,-97.5 210.176,-97.5 210.176,-45.5 153.83,-45.5"/>
<text text-anchor="middle" x="182.003" y="-84.5" font-family="Helvetica,sans-Serif" font-size="10.00">Bonus</text>
<polyline fill="none" stroke="black" points="153.83,-77.5 210.176,-77.5 "/>
<text text-anchor="middle" x="182.003" y="-64.5" font-family="Helvetica,sans-Serif" font-size="10.00">id</text>
<text text-anchor="middle" x="182.003" y="-52.5" font-family="Helvetica,sans-Serif" font-size="10.00">date</text>
</g>
<!-- A5&#45;&gt;A4JA1 -->
<g id="edge7" class="edge"><title>A5&#45;&gt;A4JA1</title>
<path fill="none" stroke="black" stroke-dasharray="5,2" d="M182.003,-45.1987C182.003,-42.5744 182.003,-39.95 182.003,-37.3257"/>
<polygon fill="black" stroke="black" points="182.003,-27.2031 186.504,-37.2031 182.004,-32.2031 182.004,-37.2031 182.004,-37.2031 182.004,-37.2031 182.004,-32.2031 177.504,-37.2032 182.003,-27.2031 182.003,-27.2031"/>
</g>
<!-- A4JA1&#45;&gt;A1 -->
<g id="edge6" class="edge"><title>A4JA1&#45;&gt;A1</title>
<path fill="none" stroke="black" d="M183.064,-26.512C184.308,-26.7588 204.455,-30.7967 219.89,-36.5 236.451,-42.6193 253.935,-50.3399 269.879,-57.9096"/>
<text text-anchor="middle" x="249.879" y="-54.8319" font-family="Helvetica,sans-Serif" font-size="10.00">0..*</text>
</g>
</g>
</svg>
