<?xml version="1.0" encoding="UTF-8" standalone="no"?>
<!DOCTYPE svg PUBLIC "-//W3C//DTD SVG 1.1//EN"
 "http://www.w3.org/Graphics/SVG/1.1/DTD/svg11.dtd">
<!-- Generated by graphviz version 2.40.1 (20161225.0304)
 -->
<!-- Title: G Pages: 1 -->
<svg width="620pt" height="192pt"
 viewBox="0.00 0.00 619.70 192.00" xmlns="http://www.w3.org/2000/svg" xmlns:xlink="http://www.w3.org/1999/xlink">
<g id="graph0" class="graph" transform="scale(1 1) rotate(0) translate(4 188)">
<title>G</title>
<polygon fill="#ffffff" stroke="transparent" points="-4,4 -4,-188 615.703,-188 615.703,4 -4,4"/>
<!-- A0 -->
<g id="node1" class="node">
<title>A0</title>
<polygon fill="none" stroke="#000000" points="529.801,-94.5 529.801,-146.5 611.703,-146.5 611.703,-94.5 529.801,-94.5"/>
<text text-anchor="middle" x="570.752" y="-133.5" font-family="Helvetica,sans-Serif" font-size="10.00" fill="#000000">Academy</text>
<polyline fill="none" stroke="#000000" points="529.801,-126.5 611.703,-126.5 "/>
<text text-anchor="middle" x="570.752" y="-113.5" font-family="Helvetica,sans-Serif" font-size="10.00" fill="#000000">id_academy</text>
<text text-anchor="middle" x="570.752" y="-101.5" font-family="Helvetica,sans-Serif" font-size="10.00" fill="#000000">title</text>
</g>
<!-- A1 -->
<g id="node2" class="node">
<title>A1</title>
<polygon fill="none" stroke="#000000" points="424.026,-94.5 424.026,-146.5 479.801,-146.5 479.801,-94.5 424.026,-94.5"/>
<text text-anchor="middle" x="451.9135" y="-133.5" font-family="Helvetica,sans-Serif" font-size="10.00" fill="#000000">RD</text>
<polyline fill="none" stroke="#000000" points="424.026,-126.5 479.801,-126.5 "/>
<text text-anchor="middle" x="451.9135" y="-113.5" font-family="Helvetica,sans-Serif" font-size="10.00" fill="#000000">id_RD</text>
<text text-anchor="middle" x="451.9135" y="-101.5" font-family="Helvetica,sans-Serif" font-size="10.00" fill="#000000">title</text>
</g>
<!-- A0&#45;&gt;A1 -->
<g id="edge1" class="edge">
<title>A0&#45;&gt;A1</title>
<path fill="none" stroke="#000000" d="M529.5216,-120.5C513.1643,-120.5 494.7719,-120.5 479.9989,-120.5"/>
<text text-anchor="middle" x="498.1251" y="-125.9524" font-family="Helvetica,sans-Serif" font-size="10.00" fill="#000000">1..*</text>
<text text-anchor="middle" x="511.3954" y="-109.0476" font-family="Helvetica,sans-Serif" font-size="10.00" fill="#000000">1..1</text>
</g>
<!-- A2 -->
<g id="node3" class="node">
<title>A2</title>
<polygon fill="none" stroke="#000000" points="303.793,-94.5 303.793,-146.5 374.026,-146.5 374.026,-94.5 303.793,-94.5"/>
<text text-anchor="middle" x="338.9095" y="-133.5" font-family="Helvetica,sans-Serif" font-size="10.00" fill="#000000">School</text>
<polyline fill="none" stroke="#000000" points="303.793,-126.5 374.026,-126.5 "/>
<text text-anchor="middle" x="338.9095" y="-113.5" font-family="Helvetica,sans-Serif" font-size="10.00" fill="#000000">id_school</text>
<text text-anchor="middle" x="338.9095" y="-101.5" font-family="Helvetica,sans-Serif" font-size="10.00" fill="#000000">title</text>
</g>
<!-- A1&#45;&gt;A2 -->
<g id="edge2" class="edge">
<title>A1&#45;&gt;A2</title>
<path fill="none" stroke="#000000" d="M423.9799,-120.5C408.9474,-120.5 390.2537,-120.5 374.2216,-120.5"/>
<text text-anchor="middle" x="392.3478" y="-125.9524" font-family="Helvetica,sans-Serif" font-size="10.00" fill="#000000">1..*</text>
<text text-anchor="middle" x="405.8538" y="-109.0476" font-family="Helvetica,sans-Serif" font-size="10.00" fill="#000000">1..1</text>
</g>
<!-- A3 -->
<g id="node4" class="node">
<title>A3</title>
<polygon fill="none" stroke="#000000" points="166.902,-58.5 166.902,-122.5 253.793,-122.5 253.793,-58.5 166.902,-58.5"/>
<text text-anchor="middle" x="210.3475" y="-109.5" font-family="Helvetica,sans-Serif" font-size="10.00" fill="#000000">Classroom</text>
<polyline fill="none" stroke="#000000" points="166.902,-102.5 253.793,-102.5 "/>
<text text-anchor="middle" x="210.3475" y="-89.5" font-family="Helvetica,sans-Serif" font-size="10.00" fill="#000000">id_classroom</text>
<text text-anchor="middle" x="210.3475" y="-77.5" font-family="Helvetica,sans-Serif" font-size="10.00" fill="#000000">title</text>
<text text-anchor="middle" x="210.3475" y="-65.5" font-family="Helvetica,sans-Serif" font-size="10.00" fill="#000000">level</text>
</g>
<!-- A2&#45;&gt;A3 -->
<g id="edge3" class="edge">
<title>A2&#45;&gt;A3</title>
<path fill="none" stroke="#000000" d="M303.7794,-112.3024C288.4642,-108.7286 270.3482,-104.5012 254.1643,-100.7247"/>
<text text-anchor="middle" x="269.8955" y="-110.075" font-family="Helvetica,sans-Serif" font-size="10.00" fill="#000000">1..*</text>
<text text-anchor="middle" x="288.0482" y="-96.9521" font-family="Helvetica,sans-Serif" font-size="10.00" fill="#000000">1..1</text>
</g>
<!-- A4 -->
<g id="node5" class="node">
<title>A4</title>
<polygon fill="none" stroke="#000000" points="21.1105,-119.5 21.1105,-183.5 95.7915,-183.5 95.7915,-119.5 21.1105,-119.5"/>
<text text-anchor="middle" x="58.451" y="-170.5" font-family="Helvetica,sans-Serif" font-size="10.00" fill="#000000">Teacher</text>
<polyline fill="none" stroke="#000000" points="21.1105,-163.5 95.7915,-163.5 "/>
<text text-anchor="middle" x="58.451" y="-150.5" font-family="Helvetica,sans-Serif" font-size="10.00" fill="#000000">id_teacher</text>
<text text-anchor="middle" x="58.451" y="-138.5" font-family="Helvetica,sans-Serif" font-size="10.00" fill="#000000">subject</text>
<text text-anchor="middle" x="58.451" y="-126.5" font-family="Helvetica,sans-Serif" font-size="10.00" fill="#000000">full_name</text>
</g>
<!-- A3&#45;&gt;A4 -->
<g id="edge4" class="edge">
<title>A3&#45;&gt;A4</title>
<path fill="none" stroke="#000000" d="M166.8201,-107.9802C144.3775,-116.9928 117.2852,-127.8728 95.8036,-136.4996"/>
<text text-anchor="middle" x="115.774" y="-134.5882" font-family="Helvetica,sans-Serif" font-size="10.00" fill="#000000">1..*</text>
<text text-anchor="middle" x="146.8497" y="-103.8916" font-family="Helvetica,sans-Serif" font-size="10.00" fill="#000000">1..*</text>
</g>
<!-- A5 -->
<g id="node6" class="node">
<title>A5</title>
<polygon fill="none" stroke="#000000" points="0,-.5 0,-100.5 116.902,-100.5 116.902,-.5 0,-.5"/>
<text text-anchor="middle" x="58.451" y="-87.5" font-family="Helvetica,sans-Serif" font-size="10.00" fill="#000000">Student</text>
<polyline fill="none" stroke="#000000" points="0,-80.5 116.902,-80.5 "/>
<text text-anchor="middle" x="58.451" y="-67.5" font-family="Helvetica,sans-Serif" font-size="10.00" fill="#000000">id_student</text>
<text text-anchor="middle" x="58.451" y="-55.5" font-family="Helvetica,sans-Serif" font-size="10.00" fill="#000000">full_name</text>
<text text-anchor="middle" x="58.451" y="-43.5" font-family="Helvetica,sans-Serif" font-size="10.00" fill="#000000">birth_date</text>
<text text-anchor="middle" x="58.451" y="-31.5" font-family="Helvetica,sans-Serif" font-size="10.00" fill="#000000">massar_number</text>
<text text-anchor="middle" x="58.451" y="-19.5" font-family="Helvetica,sans-Serif" font-size="10.00" fill="#000000">registration_number</text>
<text text-anchor="middle" x="58.451" y="-7.5" font-family="Helvetica,sans-Serif" font-size="10.00" fill="#000000">queuing_number</text>
</g>
<!-- A3&#45;&gt;A5 -->
<g id="edge5" class="edge">
<title>A3&#45;&gt;A5</title>
<path fill="none" stroke="#000000" d="M166.8201,-79.0376C151.3031,-74.9514 133.5634,-70.2799 116.9923,-65.9161"/>
<text text-anchor="middle" x="132.3684" y="-75.7057" font-family="Helvetica,sans-Serif" font-size="10.00" fill="#000000">1.*</text>
<text text-anchor="middle" x="151.4439" y="-63.248" font-family="Helvetica,sans-Serif" font-size="10.00" fill="#000000">1..1</text>
</g>
<!-- A4&#45;&gt;A2 -->
<g id="edge6" class="edge">
<title>A4&#45;&gt;A2</title>
<path fill="none" stroke="#000000" d="M95.9511,-148.3359C135.3154,-144.9014 198.981,-139.0264 253.793,-132.5 270.2417,-130.5415 288.4285,-128.0253 303.7537,-125.8033"/>
<text text-anchor="middle" x="284.6069" y="-117.0241" font-family="Helvetica,sans-Serif" font-size="10.00" fill="#000000">1..1</text>
<text text-anchor="middle" x="114.7491" y="-152.1648" font-family="Helvetica,sans-Serif" font-size="10.00" fill="#000000">1..*</text>
</g>
</g>
</svg>
