<?xml version="1.0" encoding="UTF-8" standalone="no"?>
<!DOCTYPE svg PUBLIC "-//W3C//DTD SVG 1.1//EN"
 "http://www.w3.org/Graphics/SVG/1.1/DTD/svg11.dtd">
<!-- Generated by graphviz version 2.38.0 (20140413.2041)
 -->
<!-- Title: G Pages: 1 -->
<svg width="567pt" height="124pt"
 viewBox="0.00 0.00 567.49 124.00" xmlns="http://www.w3.org/2000/svg" xmlns:xlink="http://www.w3.org/1999/xlink">
<g id="graph0" class="graph" transform="scale(1 1) rotate(0) translate(4 120)">
<title>G</title>
<polygon fill="white" stroke="none" points="-4,4 -4,-120 563.485,-120 563.485,4 -4,4"/>
<!-- A0 -->
<g id="node1" class="node"><title>A0</title>
<polygon fill="none" stroke="black" points="250.463,-0.5 250.463,-88.5 329.015,-88.5 329.015,-0.5 250.463,-0.5"/>
<text text-anchor="middle" x="289.739" y="-75.5" font-family="Helvetica,sans-Serif" font-size="10.00">Student</text>
<polyline fill="none" stroke="black" points="250.463,-68.5 329.015,-68.5 "/>
<text text-anchor="middle" x="289.739" y="-55.5" font-family="Helvetica,sans-Serif" font-size="10.00">id</text>
<text text-anchor="middle" x="289.739" y="-43.5" font-family="Helvetica,sans-Serif" font-size="10.00">ra9mTasjiil</text>
<text text-anchor="middle" x="289.739" y="-31.5" font-family="Helvetica,sans-Serif" font-size="10.00">ra9mMasar</text>
<text text-anchor="middle" x="289.739" y="-19.5" font-family="Helvetica,sans-Serif" font-size="10.00">issmKamel</text>
<text text-anchor="middle" x="289.739" y="-7.5" font-family="Helvetica,sans-Serif" font-size="10.00">tarii5Izdiad</text>
</g>
<!-- A0JA1 -->
<!-- A0&#45;&gt;A0JA1 -->
<g id="edge1" class="edge"><title>A0&#45;&gt;A0JA1</title>
<path fill="none" stroke="black" d="M329.27,-44.5C363.498,-44.5 408.55,-44.5 411.332,-44.5"/>
<text text-anchor="middle" x="347.396" y="-33.0476" font-family="Helvetica,sans-Serif" font-size="10.00">0..*</text>
</g>
<!-- A1 -->
<g id="node2" class="node"><title>A1</title>
<polygon fill="none" stroke="black" points="495.92,-18.5 495.92,-70.5 559.485,-70.5 559.485,-18.5 495.92,-18.5"/>
<text text-anchor="middle" x="527.702" y="-57.5" font-family="Helvetica,sans-Serif" font-size="10.00">Session</text>
<polyline fill="none" stroke="black" points="495.92,-50.5 559.485,-50.5 "/>
<text text-anchor="middle" x="527.702" y="-37.5" font-family="Helvetica,sans-Serif" font-size="10.00">id</text>
<text text-anchor="middle" x="527.702" y="-25.5" font-family="Helvetica,sans-Serif" font-size="10.00">title</text>
</g>
<!-- A2 -->
<g id="node3" class="node"><title>A2</title>
<polygon fill="none" stroke="black" points="379.015,-63.5 379.015,-115.5 445.92,-115.5 445.92,-63.5 379.015,-63.5"/>
<text text-anchor="middle" x="412.468" y="-102.5" font-family="Helvetica,sans-Serif" font-size="10.00">Absence</text>
<polyline fill="none" stroke="black" points="379.015,-95.5 445.92,-95.5 "/>
<text text-anchor="middle" x="412.468" y="-82.5" font-family="Helvetica,sans-Serif" font-size="10.00">id</text>
<text text-anchor="middle" x="412.468" y="-70.5" font-family="Helvetica,sans-Serif" font-size="10.00">date</text>
</g>
<!-- A2&#45;&gt;A0JA1 -->
<g id="edge3" class="edge"><title>A2&#45;&gt;A0JA1</title>
<path fill="none" stroke="black" stroke-dasharray="5,2" d="M412.468,-63.1987C412.468,-60.5744 412.468,-57.95 412.468,-55.3257"/>
<polygon fill="black" stroke="black" points="412.468,-45.2031 416.968,-55.2031 412.468,-50.2031 412.468,-55.2031 412.468,-55.2031 412.468,-55.2031 412.468,-50.2031 407.968,-55.2032 412.468,-45.2031 412.468,-45.2031"/>
</g>
<!-- A0JA1&#45;&gt;A1 -->
<g id="edge2" class="edge"><title>A0JA1&#45;&gt;A1</title>
<path fill="none" stroke="black" d="M413.55,-44.5C415.78,-44.5 462.973,-44.5 495.7,-44.5"/>
<text text-anchor="middle" x="477.574" y="-49.9524" font-family="Helvetica,sans-Serif" font-size="10.00">0..*</text>
</g>
<!-- A3 -->
<g id="node5" class="node"><title>A3</title>
<polygon fill="none" stroke="black" points="-1.42109e-14,-18.5 -1.42109e-14,-70.5 94.117,-70.5 94.117,-18.5 -1.42109e-14,-18.5"/>
<text text-anchor="middle" x="47.0585" y="-57.5" font-family="Helvetica,sans-Serif" font-size="10.00">AdditionalMark</text>
<polyline fill="none" stroke="black" points="-1.42109e-14,-50.5 94.117,-50.5 "/>
<text text-anchor="middle" x="47.0585" y="-37.5" font-family="Helvetica,sans-Serif" font-size="10.00">id</text>
<text text-anchor="middle" x="47.0585" y="-25.5" font-family="Helvetica,sans-Serif" font-size="10.00">value</text>
</g>
<!-- A3JA0 -->
<!-- A3&#45;&gt;A3JA0 -->
<g id="edge4" class="edge"><title>A3&#45;&gt;A3JA0</title>
<path fill="none" stroke="black" d="M94.296,-44.5C128.171,-44.5 168.67,-44.5 171.168,-44.5"/>
<text text-anchor="middle" x="112.422" y="-33.0476" font-family="Helvetica,sans-Serif" font-size="10.00">0..*</text>
</g>
<!-- A4 -->
<g id="node6" class="node"><title>A4</title>
<polygon fill="none" stroke="black" points="144.117,-63.5 144.117,-115.5 200.463,-115.5 200.463,-63.5 144.117,-63.5"/>
<text text-anchor="middle" x="172.29" y="-102.5" font-family="Helvetica,sans-Serif" font-size="10.00">Bonus</text>
<polyline fill="none" stroke="black" points="144.117,-95.5 200.463,-95.5 "/>
<text text-anchor="middle" x="172.29" y="-82.5" font-family="Helvetica,sans-Serif" font-size="10.00">id</text>
<text text-anchor="middle" x="172.29" y="-70.5" font-family="Helvetica,sans-Serif" font-size="10.00">date</text>
</g>
<!-- A4&#45;&gt;A3JA0 -->
<g id="edge6" class="edge"><title>A4&#45;&gt;A3JA0</title>
<path fill="none" stroke="black" stroke-dasharray="5,2" d="M172.29,-63.1987C172.29,-60.5744 172.29,-57.95 172.29,-55.3257"/>
<polygon fill="black" stroke="black" points="172.29,-45.2031 176.79,-55.2031 172.29,-50.2031 172.29,-55.2031 172.29,-55.2031 172.29,-55.2031 172.29,-50.2031 167.79,-55.2032 172.29,-45.2031 172.29,-45.2031"/>
</g>
<!-- A3JA0&#45;&gt;A0 -->
<g id="edge5" class="edge"><title>A3JA0&#45;&gt;A0</title>
<path fill="none" stroke="black" d="M173.374,-44.5C175.497,-44.5 217.606,-44.5 250.341,-44.5"/>
<text text-anchor="middle" x="232.215" y="-49.9524" font-family="Helvetica,sans-Serif" font-size="10.00">0..*</text>
</g>
</g>
</svg>
